<?xml version="1.0" encoding="UTF-8" standalone="no"?>
<!-- Created with Inkscape (http://www.inkscape.org/) -->

<svg
   width="95.220345mm"
   height="74.879494mm"
   viewBox="0 0 95.220345 74.879494"
   version="1.1"
   id="svg1"
   xml:space="preserve"
   xmlns:inkscape="http://www.inkscape.org/namespaces/inkscape"
   xmlns:sodipodi="http://sodipodi.sourceforge.net/DTD/sodipodi-0.dtd"
   xmlns="http://www.w3.org/2000/svg"
   xmlns:svg="http://www.w3.org/2000/svg"><sodipodi:namedview
     id="namedview1"
     pagecolor="#ffffff"
     bordercolor="#000000"
     borderopacity="0.25"
     inkscape:showpageshadow="2"
     inkscape:pageopacity="0.0"
     inkscape:pagecheckerboard="0"
     inkscape:deskcolor="#d1d1d1"
     inkscape:document-units="mm"><inkscape:page
       x="3.3927172e-06"
       y="1.7625194e-06"
       width="95.220345"
       height="74.879494"
       id="page3"
       margin="0"
       bleed="0" /></sodipodi:namedview><defs
     id="defs1"><inkscape:path-effect
       effect="simplify"
       id="path-effect3"
       is_visible="true"
       lpeversion="1.3"
       threshold="27.5"
       steps="1"
       smooth_angles="360"
       helper_size="0"
       simplify_individual_paths="false"
       simplify_just_coalesce="false" /></defs><path
     style="fill:#ffffff;stroke:#f9f9f9;stroke-width:0.772001;stroke-linecap:round;stroke-linejoin:round;stroke-dashoffset:0.323905"
     d="m 107.1731,87.399467 c -4.04664,-3.478832 -7.04537,-8.556471 -7.01618,-14.006767 0.0228,-4.260137 1.95528,-8.291455 4.53768,-11.586168 2.14916,-2.741971 5.50685,-4.18346 9.09317,-4.501305 1.02171,-0.09055 1.78312,0.770265 2.68038,-0.403448 2.79754,-3.659472 6.32552,-7.056459 10.7837,-8.510276 4.6428,-1.514024 9.9546,0.08071 13.39223,3.444103 1.379,1.349221 1.45672,5.27433 3.30799,4.716991 5.24924,-1.580323 11.01759,-0.23952 15.60511,2.606862 3.5284,2.189233 6.97596,5.566485 7.26835,9.846635 0.0461,0.674694 0.0973,1.234765 0.53663,1.820551 1.8198,2.426402 5.52928,4.247016 5.45941,7.279214 -0.0722,3.131538 -1.68728,6.023943 -3.66952,8.355637 -1.46892,1.727881 -3.726,2.472823 -5.47576,3.947248 -1.13733,0.958375 -2.15135,2.083063 -3.38749,2.907159 -1.68859,1.125723 -3.07341,2.991034 -5.06576,3.377173 -1.73107,0.3355 -3.37173,1.302148 -5.20477,1.017229 -1.84864,-0.287346 -3.27519,-2.60372 -5.07752,-2.203648 -1.82538,0.405189 -3.65861,0.760674 -5.45116,1.312229 -2.8627,0.880832 -5.74667,3.589644 -8.58812,2.642499 -1.97736,-0.659121 -4.47383,-3.466616 -5.9321,-1.977364 -2.07015,2.114134 -5.41706,2.337751 -8.06543,1.288452 -2.9576,-1.171813 -5.66462,-3.120118 -7.56388,-5.671911 -1.22052,-1.639858 -2.17395,-3.61838 -2.16696,-5.701095 z"
     id="path3"
     inkscape:path-effect="#path-effect3"
     inkscape:original-d="m 107.1731,87.399467 c 0,0 -11.149977,-8.787725 -5.33888,-20.960053 5.81111,-12.172328 14.03928,-8.7004 14.03928,-8.7004 0,0 6.99444,-10.723884 16.01665,-9.886816 9.02221,0.837067 12.06192,8.700399 12.06192,8.700399 0,0 6.99558,-2.599613 15.2257,2.372836 8.23011,4.972449 7.71171,11.270971 7.71171,11.270971 l 5.93209,7.909455 c 0.0707,4.362632 -4.57151,10.969277 -9.09587,12.259654 l -3.16378,2.768309 -5.33888,3.559254 c -2.77029,0.449418 -4.09934,2.751876 -10.28229,-1.186419 l -3.75699,0.790946 -10.28229,3.163782 -5.9321,-1.977364 c 0,0 -3.86744,4.440699 -11.03863,-0.235699 -7.17119,-4.676397 -6.75764,-9.848855 -6.75764,-9.848855 z"
     sodipodi:nodetypes="czczczccccccccczc"
     transform="translate(-86.916712,-36.745342)" /><path
     style="fill:#000000"
     d="m 71.722153,68.990108 c -0.47931,-3.23784 -0.93555,-6.24416 -1.01386,-6.68073 -0.2733,-1.52354 0.18489,-0.48508 0.82287,1.865 0.35361,1.30259 1.13163,4.12411 1.72893,6.27006 1.30422,4.68576 1.29224,4.43265 0.20977,4.43265 -0.87623,0 -0.87623,0 -1.74771,-5.88698 z m 2.53925,-0.92664 c -0.70142,-2.00058 -1.67838,-4.73875 -2.17103,-6.08482 -1.05838,-2.89184 -0.90577,-3.08829 0.50561,-0.65088 0.56541,0.97645 1.9644,3.28974 3.10885,5.14063 1.14446,1.8509 2.08083,3.47219 2.08083,3.60287 0,0.19282 -1.92248,1.63236 -2.17714,1.63022 -0.0395,-3.3e-4 -0.6457,-1.63744 -1.34712,-3.63802 z m 2.5675,-2.63984 c -1.11846,-1.4218 -2.50475,-3.15755 -3.08066,-3.85723 -1.76098,-2.13947 -1.00976,-1.62168 2.71887,1.87404 4.13141,3.87333 3.8574,3.50361 3.03861,4.09985 -0.64326,0.46841 -0.64326,0.46841 -2.67682,-2.11666 z M 2.5710977,62.611068 c -0.94839,-1.42837 -0.94839,-1.42837 0.42215,-2.16894 0.7538,-0.40731 4.5156,-2.50546 8.3595703,-4.66255 3.84396,-2.1571 7.02548,-3.88554 7.07004,-3.84098 0.07,0.0701 -13.1540203,10.84874 -14.4341303,11.76498 -0.41554,0.29743 -0.57779,0.17239 -1.41763,-1.09251 z m 7.26609,0.69439 c -0.62765,-0.0562 -1.1039,-0.20889 -1.05834,-0.33941 0.11764,-0.33697 10.0184803,-9.59465 10.1357803,-9.47736 0.29294,0.29295 -6.91793,9.97997 -7.40709,9.95062 -0.29104,-0.0175 -1.0427,-0.0777 -1.6703503,-0.13385 z m 20.8526403,-0.37965 c -5.30569,-0.84962 -9.78958,-6.03334 -9.78958,-11.31749 0,-0.61177 -0.24247,-0.90874 -1.29165,-1.58199 -13.4919803,-8.65778 -6.85194,-30.66837 9.26734,-30.71961 2.47535,-0.008 2.47535,-0.008 3.40139,-1.63312 5.654495,-9.9239733 20.325565,-8.3276533 23.440935,2.55054 0.27381,0.95606 0.55872,1.70237 0.63314,1.65846 9.39378,-5.54278 23.27796,0.79889 23.28698,10.63643 5.1e-4,0.5634 0.26247,0.82301 1.46398,1.45082 7.14076,3.7312 6.20537,14.66922 -1.44772,16.9289 -1.0363,0.30599 -1.1606,0.44242 -1.60848,1.76543 -0.61173,1.80698 -2.3356,3.51805 -3.99417,3.9645 -0.81471,0.2193 -1.53559,0.70306 -2.41631,1.62148 -2.77001,2.8886 -7.28592,3.67825 -10.76641,1.88262 -1.62948,-0.84068 -1.66744,-0.84679 -2.48947,-0.40058 -1.32637,0.71998 -4.73886,0.62559 -6.24757,-0.17281 -0.83704,-0.44295 -1.21081,-0.5302 -1.28737,-0.30051 -1.12212,3.36635 -7.64649,4.59628 -10.39858,1.96027 -0.69458,-0.6653 -0.69458,-0.6653 -1.98437,0.11434 -2.38148,1.43954 -5.16496,2.00981 -7.772085,1.59232 z m 7.439265,-3.73451 c 1.90985,-0.97988 1.92048,-0.98189 2.46856,-0.467 2.35365,2.21115 7.162,1.64373 9.13506,-1.07799 0.69514,-0.95891 0.69514,-0.95891 1.74019,-0.40249 1.32657,0.70631 4.60161,0.78517 5.77948,0.13915 0.73368,-0.40239 0.83222,-0.38562 2.35775,0.40115 3.24773,1.67499 7.41469,0.92054 9.91852,-1.79579 0.7089,-0.76906 1.36635,-1.20816 1.98184,-1.32363 1.86423,-0.34973 4.15851,-2.81431 4.15851,-4.4672 0,-0.28968 0.37637,-0.534 1.12448,-0.72993 7.07949,-1.85415 8.02177,-12.16502 1.3802,-15.1029 -1.0728,-0.47455 -1.16543,-0.60001 -1.44797,-1.96103 -1.81072,-8.72219 -11.78301,-13.50292 -19.88617,-9.53346 -1.76384,0.86404 -1.76384,0.86404 -1.93881,-0.089 -1.87366,-10.205773 -16.73519,-12.226933 -21.79246,-2.96376 -0.780105,1.42888 -0.780105,1.42888 -2.879485,1.37338 -14.93932,-0.3949 -21.3857103,20.18521 -8.65893,27.6436 1.09106,0.63941 1.11312,0.68123 1.24851,2.36801 0.56795,7.07535 8.76001,11.34984 15.310725,7.98889 z m -7.146995,-4.31208 c -8.77523,-2.35979 -11.61539,-13.19666 -5.13112,-19.57815 1.83549,-1.8064 2.42488,-1.88772 0.75681,-0.10442 -6.28113,6.71504 -2.88733,17.10227 6.46329,19.78188 0.926045,0.26537 0.926045,0.26537 0.132295,0.27497 -0.436565,0.005 -1.436135,-0.16315 -2.221275,-0.37428 z m 41.946575,-18.39972 c 2.38736,-6.61568 -4.50084,-14.12988 -11.28223,-12.30758 -1.75662,0.47204 -2.04564,0.34394 -0.6363,-0.28203 4.21558,-1.87235 10.26456,0.5393 12.17224,4.85292 1.11852,2.52916 0.98767,7.45776 -0.21777,8.20276 -0.16895,0.10442 -0.18177,-0.0619 -0.0359,-0.46607 z m -43.810025,-2.03796 c -1.04771,-0.56189 -1.87604,-1.94233 -1.8507,-3.08428 0.0162,-0.73071 0.0478,-0.70141 0.3753,0.34808 0.42297,1.35543 0.9926,2.03979 2.25255,2.70628 0.50948,0.2695 0.74587,0.49526 0.52532,0.50169 -0.22055,0.006 -0.80667,-0.20586 -1.30247,-0.47177 z M 0.17454773,58.825698 c -0.29568,-0.29567 -0.19677,-1.0815 0.15434,-1.22632 1.12493997,-0.464 14.26965027,-5.59655 15.09194027,-5.89287 0.55158,-0.19877 0.93151,-0.24593 0.84428,-0.10479 -0.0872,0.14114 -0.26171,0.25662 -0.38774,0.25662 -0.12602,0 -3.64682,1.60735 -7.8240103,3.57188 -4.17719,1.96453 -7.61908997,3.57187 -7.64865997,3.57187 -0.0296,0 -0.13313,-0.0794 -0.23015,-0.17639 z M 81.511883,30.590468 c 0.21894,-0.20101 11.87384,-7.04255 11.99732,-7.04255 0.22992,0 1.01783,1.86766 0.85613,2.02936 -0.18304,0.18304 -12.5067,5.11439 -12.78109,5.11439 -0.10043,0 -0.13299,-0.0455 -0.0724,-0.1012 z m 5.05299,-6.1927 c 7.12425,-5.678 6.27137,-5.15659 7.58846,-4.63922 1.16505,0.45764 1.35028,0.72432 0.68138,0.981 -0.22739,0.0873 -3.42376,2.005 -7.10304,4.26164 -3.67928,2.25664 -6.77563,4.10298 -6.88078,4.10298 -0.10516,0 2.46613,-2.11788 5.71398,-4.7064 z m -6.3616,3.48578 c 0.63568,-1.95188 4.41665,-6.41456 5.51989,-6.51512 1.07862,-0.0983 1.60655,-0.0456 1.2919,0.12897 -0.0656,0.0364 -1.64663,1.55443 -3.51347,3.37344 -1.86684,1.81901 -3.35109,3.17473 -3.29832,3.01271 z m -21.68105,-9.30977 c 0.19016,-0.26192 2.24152,-2.91106 4.55858,-5.886983 2.31707,-2.9759103 4.24164,-5.4501643 4.27682,-5.4983343 0.0565,-0.07741 1.14114,0.419594 1.39837,0.640794 0.10556,0.0908 -10.27572,11.2207533 -10.46595,11.2207533 -0.0624,0 0.042,-0.2143 0.23218,-0.47623 z m -1.5849,-0.31752 c 0.0759,-0.21828 1.35015,-3.849691 2.8316,-8.069793 1.48145,-4.2201093 2.74397,-7.8210273 2.8056,-8.0020433 0.10733,-0.315255 1.16594,-0.04331 1.78276,0.457968 0.10871,0.08835 -1.47586,3.664445 -3.52127,7.9468853 -3.2894,6.886973 -4.35912,8.990643 -3.89869,7.666983 z M 24.075248,14.392887 c -5.00937,-4.6346023 -4.55771,-4.088232 -4.20825,-5.0906923 0.1648,-0.47276 0.39427,-0.8244 0.50992,-0.7814 0.30934,0.115 7.69582,9.2089033 7.46576,9.1915133 -0.10756,-0.008 -1.8029,-1.50187 -3.76743,-3.319421 z m 0.70747,-2.913512 c -4.96293,-6.2217493 -4.96293,-6.2217493 -4.38915,-7.1501373 0.70872,-1.146727 0.2041,-1.756232 5.25915,6.3523273 5.26513,8.445543 5.24507,8.463943 -0.87,0.79781 z m 32.100865,4.626473 c 0,-0.21258 0.3455,-2.107661 0.76777,-4.211283 0.42228,-2.1036303 1.10354,-5.6404753 1.51393,-7.8596683 C 59.911433,7.4536134e-7 59.911433,7.4536134e-7 60.884883,7.4536134e-7 c 0.97345,0 0.97345,0 0.19392,2.57968795463866 -0.42874,1.418828 -1.50184,5.079996 -2.38466,8.1359363 -1.58064,5.471463 -1.81056,6.155973 -1.81056,5.390223 z m -27.007035,-0.53891 c -0.17984,-0.33989 -1.67777,-2.785183 -3.32873,-5.434003 -3.47103,-5.5689573 -3.25078,-5.0188823 -2.06504,-5.1573113 1.19059,-0.138994 0.9856,-0.459751 3.65654,5.7216413 1.97298,4.566103 2.79326,6.865473 1.73723,4.869673 z"
     id="path2"
     inkscape:label="path2" /></svg>
