<?xml version="1.0" encoding="UTF-8" standalone="no"?>
<!-- Created with Inkscape (http://www.inkscape.org/) -->

<svg
   width="73.338867mm"
   height="27.281431mm"
   viewBox="0 0 73.338867 27.281431"
   version="1.1"
   id="svg1"
   xml:space="preserve"
   xmlns:inkscape="http://www.inkscape.org/namespaces/inkscape"
   xmlns:sodipodi="http://sodipodi.sourceforge.net/DTD/sodipodi-0.dtd"
   xmlns="http://www.w3.org/2000/svg"
   xmlns:svg="http://www.w3.org/2000/svg"><sodipodi:namedview
     id="namedview1"
     pagecolor="#ffffff"
     bordercolor="#000000"
     borderopacity="0.25"
     inkscape:showpageshadow="2"
     inkscape:pageopacity="0.0"
     inkscape:pagecheckerboard="0"
     inkscape:deskcolor="#d1d1d1"
     inkscape:document-units="mm"><inkscape:page
       x="-3.2017049e-06"
       y="4.7323621e-07"
       width="73.338867"
       height="27.281431"
       id="page3"
       margin="0"
       bleed="0" /></sodipodi:namedview><defs
     id="defs1"><clipPath
       clipPathUnits="userSpaceOnUse"
       id="clipPath552"><path
         d="M 0,450 H 450 V 0 H 0 Z"
         transform="translate(-119.4277,-195.6826)"
         id="path552" /></clipPath><clipPath
       clipPathUnits="userSpaceOnUse"
       id="clipPath554"><path
         d="M 0,450 H 450 V 0 H 0 Z"
         transform="translate(-123.78711,-178.1709)"
         id="path554" /></clipPath><clipPath
       clipPathUnits="userSpaceOnUse"
       id="clipPath556"><path
         d="M 0,450 H 450 V 0 H 0 Z"
         transform="translate(-128.2915,-191.48541)"
         id="path556" /></clipPath><clipPath
       clipPathUnits="userSpaceOnUse"
       id="clipPath558"><path
         d="M 0,450 H 450 V 0 H 0 Z"
         transform="translate(-96.027302,-193.9375)"
         id="path558" /></clipPath><clipPath
       clipPathUnits="userSpaceOnUse"
       id="clipPath560"><path
         d="M 0,450 H 450 V 0 H 0 Z"
         transform="translate(-82.813,-184.9707)"
         id="path560" /></clipPath><clipPath
       clipPathUnits="userSpaceOnUse"
       id="clipPath562"><path
         d="M 0,450 H 450 V 0 H 0 Z"
         transform="translate(-97.359902,-186.28131)"
         id="path562" /></clipPath><clipPath
       clipPathUnits="userSpaceOnUse"
       id="clipPath564"><path
         d="M 0,450 H 450 V 0 H 0 Z"
         transform="translate(-62.386202,-184.83501)"
         id="path564" /></clipPath><clipPath
       clipPathUnits="userSpaceOnUse"
       id="clipPath566"><path
         d="M 0,450 H 450 V 0 H 0 Z"
         transform="translate(-29.307601,-189.7686)"
         id="path566" /></clipPath><clipPath
       clipPathUnits="userSpaceOnUse"
       id="clipPath568"><path
         d="M 0,450 H 450 V 0 H 0 Z"
         transform="translate(-51.663601,-188.4111)"
         id="path568" /></clipPath><clipPath
       clipPathUnits="userSpaceOnUse"
       id="clipPath570"><path
         d="M 0,450 H 450 V 0 H 0 Z"
         transform="translate(-51.169402,-187.12791)"
         id="path570" /></clipPath><clipPath
       clipPathUnits="userSpaceOnUse"
       id="clipPath572"><path
         d="M 0,450 H 450 V 0 H 0 Z"
         transform="translate(-47.451701,-182.1045)"
         id="path572" /></clipPath><clipPath
       clipPathUnits="userSpaceOnUse"
       id="clipPath574"><path
         d="M 0,450 H 450 V 0 H 0 Z"
         transform="translate(-46.554701,-181.3945)"
         id="path574" /></clipPath><clipPath
       clipPathUnits="userSpaceOnUse"
       id="clipPath576"><path
         d="M 0,450 H 450 V 0 H 0 Z"
         transform="translate(-76.215302,-189.2295)"
         id="path576" /></clipPath><clipPath
       clipPathUnits="userSpaceOnUse"
       id="clipPath578"><path
         d="M 0,450 H 450 V 0 H 0 Z"
         transform="translate(-56.542001,-180.6934)"
         id="path578" /></clipPath><clipPath
       clipPathUnits="userSpaceOnUse"
       id="clipPath580"><path
         d="M 0,450 H 450 V 0 H 0 Z"
         transform="translate(-135.6543,-186.5869)"
         id="path580" /></clipPath><clipPath
       clipPathUnits="userSpaceOnUse"
       id="clipPath582"><path
         d="M 0,450 H 450 V 0 H 0 Z"
         transform="translate(-155.45361,-193.9375)"
         id="path582" /></clipPath><clipPath
       clipPathUnits="userSpaceOnUse"
       id="clipPath584"><path
         d="M 0,450 H 450 V 0 H 0 Z"
         transform="translate(-168.6685,-184.9707)"
         id="path584" /></clipPath><clipPath
       clipPathUnits="userSpaceOnUse"
       id="clipPath586"><path
         d="M 0,450 H 450 V 0 H 0 Z"
         transform="translate(-154.1221,-186.28131)"
         id="path586" /></clipPath><clipPath
       clipPathUnits="userSpaceOnUse"
       id="clipPath588"><path
         d="M 0,450 H 450 V 0 H 0 Z"
         transform="translate(-189.0952,-184.83501)"
         id="path588" /></clipPath><clipPath
       clipPathUnits="userSpaceOnUse"
       id="clipPath590"><path
         d="M 0,450 H 450 V 0 H 0 Z"
         transform="translate(-222.17431,-189.7686)"
         id="path590" /></clipPath><clipPath
       clipPathUnits="userSpaceOnUse"
       id="clipPath592"><path
         d="M 0,450 H 450 V 0 H 0 Z"
         transform="translate(-199.8184,-188.4111)"
         id="path592" /></clipPath><clipPath
       clipPathUnits="userSpaceOnUse"
       id="clipPath594"><path
         d="M 0,450 H 450 V 0 H 0 Z"
         transform="translate(-200.31201,-187.12701)"
         id="path594" /></clipPath><clipPath
       clipPathUnits="userSpaceOnUse"
       id="clipPath596"><path
         d="M 0,450 H 450 V 0 H 0 Z"
         transform="translate(-204.03031,-182.1045)"
         id="path596" /></clipPath><clipPath
       clipPathUnits="userSpaceOnUse"
       id="clipPath598"><path
         d="M 0,450 H 450 V 0 H 0 Z"
         transform="translate(-204.92631,-181.3936)"
         id="path598" /></clipPath><clipPath
       clipPathUnits="userSpaceOnUse"
       id="clipPath600"><path
         d="M 0,450 H 450 V 0 H 0 Z"
         transform="translate(-175.2661,-189.22851)"
         id="path600" /></clipPath><clipPath
       clipPathUnits="userSpaceOnUse"
       id="clipPath602"><path
         d="M 0,450 H 450 V 0 H 0 Z"
         transform="translate(-194.9395,-180.6934)"
         id="path602" /></clipPath><clipPath
       clipPathUnits="userSpaceOnUse"
       id="clipPath604"><path
         d="M 0,450 H 450 V 0 H 0 Z"
         transform="translate(-119.4277,-248.2861)"
         id="path604" /></clipPath><clipPath
       clipPathUnits="userSpaceOnUse"
       id="clipPath606"><path
         d="M 0,450 H 450 V 0 H 0 Z"
         transform="translate(-123.22851,-231.56881)"
         id="path606" /></clipPath><clipPath
       clipPathUnits="userSpaceOnUse"
       id="clipPath608"><path
         d="M 0,450 H 450 V 0 H 0 Z"
         transform="translate(-127.6797,-244.85991)"
         id="path608" /></clipPath><clipPath
       clipPathUnits="userSpaceOnUse"
       id="clipPath610"><path
         d="M 0,450 H 450 V 0 H 0 Z"
         transform="translate(-96.027302,-229.93551)"
         id="path610" /></clipPath><clipPath
       clipPathUnits="userSpaceOnUse"
       id="clipPath612"><path
         d="M 0,450 H 450 V 0 H 0 Z"
         transform="translate(-82.813,-238.90191)"
         id="path612" /></clipPath><clipPath
       clipPathUnits="userSpaceOnUse"
       id="clipPath614"><path
         d="M 0,450 H 450 V 0 H 0 Z"
         transform="translate(-97.359902,-237.59131)"
         id="path614" /></clipPath><clipPath
       clipPathUnits="userSpaceOnUse"
       id="clipPath616"><path
         d="M 0,450 H 450 V 0 H 0 Z"
         transform="translate(-62.386202,-239.0371)"
         id="path616" /></clipPath><clipPath
       clipPathUnits="userSpaceOnUse"
       id="clipPath618"><path
         d="M 0,450 H 450 V 0 H 0 Z"
         transform="translate(-29.307601,-234.10351)"
         id="path618" /></clipPath><clipPath
       clipPathUnits="userSpaceOnUse"
       id="clipPath620"><path
         d="M 0,450 H 450 V 0 H 0 Z"
         transform="translate(-51.663601,-235.4614)"
         id="path620" /></clipPath><clipPath
       clipPathUnits="userSpaceOnUse"
       id="clipPath622"><path
         d="M 0,450 H 450 V 0 H 0 Z"
         transform="translate(-51.169402,-236.7451)"
         id="path622" /></clipPath><clipPath
       clipPathUnits="userSpaceOnUse"
       id="clipPath624"><path
         d="M 0,450 H 450 V 0 H 0 Z"
         transform="translate(-47.451701,-241.76811)"
         id="path624" /></clipPath><clipPath
       clipPathUnits="userSpaceOnUse"
       id="clipPath626"><path
         d="M 0,450 H 450 V 0 H 0 Z"
         transform="translate(-46.554701,-242.47851)"
         id="path626" /></clipPath><clipPath
       clipPathUnits="userSpaceOnUse"
       id="clipPath628"><path
         d="M 0,450 H 450 V 0 H 0 Z"
         transform="translate(-76.215302,-234.6436)"
         id="path628" /></clipPath><clipPath
       clipPathUnits="userSpaceOnUse"
       id="clipPath630"><path
         d="M 0,450 H 450 V 0 H 0 Z"
         transform="translate(-56.542001,-243.17971)"
         id="path630" /></clipPath><clipPath
       clipPathUnits="userSpaceOnUse"
       id="clipPath632"><path
         d="M 0,450 H 450 V 0 H 0 Z"
         transform="translate(-135.6543,-237.28611)"
         id="path632" /></clipPath><clipPath
       clipPathUnits="userSpaceOnUse"
       id="clipPath634"><path
         d="M 0,450 H 450 V 0 H 0 Z"
         transform="translate(-155.45361,-229.93551)"
         id="path634" /></clipPath><clipPath
       clipPathUnits="userSpaceOnUse"
       id="clipPath636"><path
         d="M 0,450 H 450 V 0 H 0 Z"
         transform="translate(-168.6685,-238.90191)"
         id="path636" /></clipPath><clipPath
       clipPathUnits="userSpaceOnUse"
       id="clipPath638"><path
         d="M 0,450 H 450 V 0 H 0 Z"
         transform="translate(-154.1221,-237.59131)"
         id="path638" /></clipPath><clipPath
       clipPathUnits="userSpaceOnUse"
       id="clipPath640"><path
         d="M 0,450 H 450 V 0 H 0 Z"
         transform="translate(-189.0952,-239.0371)"
         id="path640" /></clipPath><clipPath
       clipPathUnits="userSpaceOnUse"
       id="clipPath642"><path
         d="M 0,450 H 450 V 0 H 0 Z"
         transform="translate(-222.17431,-234.10401)"
         id="path642" /></clipPath><clipPath
       clipPathUnits="userSpaceOnUse"
       id="clipPath644"><path
         d="M 0,450 H 450 V 0 H 0 Z"
         transform="translate(-199.8184,-235.4614)"
         id="path644" /></clipPath><clipPath
       clipPathUnits="userSpaceOnUse"
       id="clipPath646"><path
         d="M 0,450 H 450 V 0 H 0 Z"
         transform="translate(-200.31201,-236.74561)"
         id="path646" /></clipPath><clipPath
       clipPathUnits="userSpaceOnUse"
       id="clipPath648"><path
         d="M 0,450 H 450 V 0 H 0 Z"
         transform="translate(-204.03031,-241.76811)"
         id="path648" /></clipPath><clipPath
       clipPathUnits="userSpaceOnUse"
       id="clipPath650"><path
         d="M 0,450 H 450 V 0 H 0 Z"
         transform="translate(-204.92631,-242.479)"
         id="path650" /></clipPath><clipPath
       clipPathUnits="userSpaceOnUse"
       id="clipPath652"><path
         d="M 0,450 H 450 V 0 H 0 Z"
         transform="translate(-175.2661,-234.6436)"
         id="path652" /></clipPath><clipPath
       clipPathUnits="userSpaceOnUse"
       id="clipPath654"><path
         d="M 0,450 H 450 V 0 H 0 Z"
         transform="translate(-194.9395,-243.1792)"
         id="path654" /></clipPath><clipPath
       clipPathUnits="userSpaceOnUse"
       id="clipPath656"><path
         d="M 0,450 H 450 V 0 H 0 Z"
         transform="translate(-53.366201,-231.30081)"
         id="path656" /></clipPath><clipPath
       clipPathUnits="userSpaceOnUse"
       id="clipPath658"><path
         d="M 0,450 H 450 V 0 H 0 Z"
         transform="translate(-53.366201,-192.43071)"
         id="path658" /></clipPath><clipPath
       clipPathUnits="userSpaceOnUse"
       id="clipPath660"><path
         d="M 0,450 H 450 V 0 H 0 Z"
         transform="translate(-52.395502,-229.0078)"
         id="path660" /></clipPath><clipPath
       clipPathUnits="userSpaceOnUse"
       id="clipPath662"><path
         d="M 0,450 H 450 V 0 H 0 Z"
         transform="translate(-198.7539,-231.30081)"
         id="path662" /></clipPath><clipPath
       clipPathUnits="userSpaceOnUse"
       id="clipPath664"><path
         d="M 0,450 H 450 V 0 H 0 Z"
         transform="translate(-198.7539,-192.43071)"
         id="path664" /></clipPath><clipPath
       clipPathUnits="userSpaceOnUse"
       id="clipPath666"><path
         d="M 0,450 H 450 V 0 H 0 Z"
         transform="translate(-199.72461,-229.0078)"
         id="path666" /></clipPath><clipPath
       clipPathUnits="userSpaceOnUse"
       id="clipPath668"><path
         d="M 0,450 H 450 V 0 H 0 Z"
         transform="translate(-104.0601,-229.21731)"
         id="path668" /></clipPath><clipPath
       clipPathUnits="userSpaceOnUse"
       id="clipPath670"><path
         d="M 0,450 H 450 V 0 H 0 Z"
         transform="translate(-111.14061,-243.1738)"
         id="path670" /></clipPath><clipPath
       clipPathUnits="userSpaceOnUse"
       id="clipPath672"><path
         d="M 0,450 H 450 V 0 H 0 Z"
         transform="translate(-147.6846,-229.21731)"
         id="path672" /></clipPath><clipPath
       clipPathUnits="userSpaceOnUse"
       id="clipPath674"><path
         d="M 0,450 H 450 V 0 H 0 Z"
         transform="translate(-148.0059,-233.68851)"
         id="path674" /></clipPath><clipPath
       clipPathUnits="userSpaceOnUse"
       id="clipPath676"><path
         d="M 0,450 H 450 V 0 H 0 Z"
         transform="translate(-104.0601,-194.5449)"
         id="path676" /></clipPath><clipPath
       clipPathUnits="userSpaceOnUse"
       id="clipPath678"><path
         d="M 0,450 H 450 V 0 H 0 Z"
         transform="translate(-111.92331,-197.13771)"
         id="path678" /></clipPath><clipPath
       clipPathUnits="userSpaceOnUse"
       id="clipPath680"><path
         d="M 0,450 H 450 V 0 H 0 Z"
         transform="translate(-147.6846,-194.5449)"
         id="path680" /></clipPath><clipPath
       clipPathUnits="userSpaceOnUse"
       id="clipPath682"><path
         d="M 0,450 H 450 V 0 H 0 Z"
         transform="translate(-148.186,-194.2783)"
         id="path682" /></clipPath></defs><g
     id="g1"
     inkscape:groupmode="layer"
     inkscape:label="1"
     transform="matrix(0.26458333,0,0,0.26458334,85.990888,-14.134994)"><rect
       style="fill:#ffffff;stroke:#f9f9f9;stroke-width:2.9178;stroke-linecap:round;stroke-linejoin:round;stroke-dashoffset:0.323905"
       id="rect2"
       width="199.22801"
       height="50.7318"
       x="-285.6008"
       y="79.79689"
       ry="25.3659" /><path
       id="path551"
       d="m 0,0 c -1.469,-0.311 -2.779,-1.04 -3.74,-2.001 -1.427,-1.426 -2.389,-3.416 -2.22,-5.675 0.217,-2.91 3.073,-5.971 5.96,-4.376 0.116,0.064 0.23,0.134 0.345,0.212 1.217,0.834 1.621,2.717 0.289,4.053 C 0.437,-7.589 0.223,-7.43 0,-7.309 -1.487,-6.5 -3.38,-7.35 -3.6,-9.096 c -1.465,2.054 -0.515,4.858 1.616,6.117 0.545,0.322 1.233,0.507 1.984,0.547 1.207,0.065 2.579,-0.243 3.801,-0.947 0.594,0.793 1.337,1.497 2.275,2.083 C 4.056,0.103 1.896,0.4 0,0"
       style="fill:#000000;fill-opacity:1;fill-rule:nonzero;stroke:none"
       transform="matrix(1.3333333,0,0,-1.3333333,-194.82876,126.65046)"
       clip-path="url(#clipPath552)" /><path
       id="path553"
       d="m 0,0 c -1.213,-1.154 -2.7,-2.062 -4.359,-2.584 -2.774,-0.874 -6.027,-0.67 -9.273,1.266 -4.932,2.942 -7.01,9.964 -13.135,12.713 -6.164,2.764 -15.079,1.706 -17.406,-4.905 l 0.167,-0.009 c 2.205,6.268 12.774,6.576 18.173,3.146 4.423,-2.81 6.546,-9.824 11.52,-12.556 3.544,-1.947 6.959,-2.323 9.954,-1.685 2.275,0.484 4.308,1.554 5.971,2.969 C 1.01,-1.194 0.479,-0.637 0,0"
       style="fill:#000000;fill-opacity:1;fill-rule:nonzero;stroke:none"
       transform="matrix(1.3333333,0,0,-1.3333333,-189.01622,149.99939)"
       clip-path="url(#clipPath554)" /><path
       id="path555"
       d="m 0,0 c -0.881,-0.569 -1.642,-1.258 -2.283,-2.067 1.544,-2.714 1.322,-5.786 -0.049,-8.388 0.514,-0.763 1.087,-1.435 1.72,-2.018 1.337,1.91 2.106,4.141 2.208,6.374 v 1.022 C 1.513,-3.302 0.997,-1.556 0,0"
       style="fill:#000000;fill-opacity:1;fill-rule:nonzero;stroke:none"
       transform="matrix(1.3333333,0,0,-1.3333333,-183.01036,132.24672)"
       clip-path="url(#clipPath556)" /><path
       id="path557"
       d="m 0,0 c 8.739,-2.94 8.801,-10.6 15.616,-14.834 3.434,-2.135 7.644,-2.025 10.89,0.317 l 0.371,-0.644 c -2.114,-1.72 -5.266,-2.744 -8.981,-2.047 -7.331,1.376 -9.765,11.021 -15.812,14.008 -6.277,3.101 -18.941,2.857 -22.383,-10.925 -2.171,3.536 0.634,8.74 2.877,10.865 C -13.281,0.664 -6.741,2.269 0,0"
       style="fill:#000000;fill-opacity:1;fill-rule:evenodd;stroke:none"
       transform="matrix(1.3333333,0,0,-1.3333333,-226.02929,128.97726)"
       clip-path="url(#clipPath558)" /><path
       id="path559"
       d="M 0,0 C 1.788,0.336 2.727,-3.084 -0.243,-5.072 -2.403,-6.518 -4.285,-7.931 -5.242,-10.573 -4.403,-0.563 1.23,6.1 10.929,3.554 4.757,4.316 0.327,1.419 0,0"
       style="fill:#000000;fill-opacity:1;fill-rule:evenodd;stroke:none"
       transform="matrix(1.3333333,0,0,-1.3333333,-243.64836,140.93299)"
       clip-path="url(#clipPath560)" /><path
       id="path561"
       d="m 0,0 c -2.664,1.475 -7.04,2.026 -10.29,0.56 -1.232,-0.557 -1.596,-1.319 -1.303,-2.318 0.71,-2.421 3.872,-1.579 4.284,0.4 0.967,-1.606 3.359,-0.334 2.921,0.842 C -2.731,-1.641 -3.381,0.423 0,0"
       style="fill:#000000;fill-opacity:1;fill-rule:evenodd;stroke:none"
       transform="matrix(1.3333333,0,0,-1.3333333,-224.25249,139.18552)"
       clip-path="url(#clipPath562)" /><path
       id="path563"
       d="M 0,0 C 1.567,-1.084 1.615,-3.316 0.427,-4.759 -0.622,-6.031 -3.292,-6.574 -5.403,-5.39 -12.214,-1.577 -7.765,10.16 1.524,8.372 5.457,7.612 8.555,3.758 12.988,2.878 13.134,3.145 13.289,3.403 13.447,3.653 13.296,3.677 13.149,3.706 13.004,3.738 9.137,4.596 5.828,9.026 1.591,9.688 -4.261,10.602 -8.436,7.446 -10.092,3.637 c -1.762,-4.058 -0.525,-9.108 3.508,-11.164 3.864,-1.97 7.357,0.065 8.509,2.525 C 2.572,-3.622 2.74,-1.96 2.042,-0.4 1.102,1.689 -1.904,3.164 -3.507,0.936 -4.158,0.029 -3.961,-1.413 -2.67,-2.018 -1.202,-2.708 0.336,-1.49 0,0"
       style="fill:#000000;fill-opacity:1;fill-rule:nonzero;stroke:none"
       transform="matrix(1.3333333,0,0,-1.3333333,-270.88409,141.11392)"
       clip-path="url(#clipPath564)" /><path
       id="path565"
       d="m 0,0 c 0.981,-2.776 -0.987,-5.598 1.916,-7.85 -2.411,0.709 -3.065,2.005 -3.069,2.804 -0.797,-1.767 -2.217,-2.063 -3.204,-3.387 0.508,1.571 -0.07,2.901 0.908,4.573 -0.653,-0.459 -2.088,-0.676 -4.063,0.88 C -3.994,-4.045 -2.832,-0.807 0,0"
       style="fill:#000000;fill-opacity:1;fill-rule:nonzero;stroke:none"
       transform="matrix(1.3333333,0,0,-1.3333333,-314.98889,134.53579)"
       clip-path="url(#clipPath566)" /><path
       id="path567"
       d="m 0,0 c -3.05,-1.862 -6.201,-1.062 -9.633,0.928 -3.2,1.853 -10.363,3.816 -12.899,-0.246 l -0.334,0.275 C -20.073,5.43 -12.583,3.966 -9.005,1.893 -4.872,-0.502 -1.402,-0.178 1.89,3.006 1.259,2.334 0.418,0.783 0,0"
       style="fill:#000000;fill-opacity:1;fill-rule:nonzero;stroke:none"
       transform="matrix(1.3333333,0,0,-1.3333333,-285.18089,136.34579)"
       clip-path="url(#clipPath568)" /><path
       id="path569"
       d="m 0,0 c -1.083,-0.608 -4.7,-1.188 -6.215,0.131 0.377,-0.97 2.177,-2.188 3.076,-2.263 -0.903,-1.115 0.24,-2.329 1.431,-1.654 0.178,-1.29 1.281,-2.127 2.233,-2.543 C -0.585,-5.115 -0.765,-1.293 0,0"
       style="fill:#000000;fill-opacity:1;fill-rule:evenodd;stroke:none"
       transform="matrix(1.3333333,0,0,-1.3333333,-285.83982,138.05672)"
       clip-path="url(#clipPath570)" /><path
       id="path571"
       d="m 0,0 c -0.333,0 -0.602,0.27 -0.602,0.602 0,0.331 0.269,0.6 0.602,0.6 0.331,0 0.601,-0.269 0.601,-0.601 C 0.601,0.27 0.331,0 0,0"
       style="fill:#000000;fill-opacity:1;fill-rule:evenodd;stroke:none"
       transform="matrix(1.3333333,0,0,-1.3333333,-290.79676,144.75459)"
       clip-path="url(#clipPath572)" /><path
       id="path573"
       d="m 0,0 c -0.166,-0.001 -0.302,0.135 -0.302,0.301 0,0.168 0.136,0.303 0.302,0.303 0.167,0 0.303,-0.135 0.303,-0.302 C 0.303,0.135 0.167,-0.001 0,0"
       style="fill:#000000;fill-opacity:1;fill-rule:evenodd;stroke:none"
       transform="matrix(1.3333333,0,0,-1.3333333,-291.99276,145.70126)"
       clip-path="url(#clipPath574)" /><path
       id="path575"
       d="M 0,0 C 0.435,1.513 4.969,4.995 6.766,5.144 5.682,6.319 0.831,7.101 -0.315,4.46 -4.477,7.807 -2.813,2.122 -7.845,4.972 -4.572,1.145 -1.278,0.039 0,0"
       style="fill:#000000;fill-opacity:1;fill-rule:evenodd;stroke:none"
       transform="matrix(1.3333333,0,0,-1.3333333,-252.44529,135.25459)"
       clip-path="url(#clipPath576)" /><path
       id="path577"
       d="M 0,0 C -1.227,0.632 -2.701,2.597 -2.271,4.938 -1.229,10.614 3.57,12.853 7.968,11.521 12.231,10.229 15.892,6.406 18.177,6.188 17.919,5.479 17.677,5.03 17.542,4.2 13.222,5.056 9.14,11.711 4.278,10.867 1.16,10.326 -1.43,7.317 -1.792,4.279 -1.924,3.161 -1.542,1.329 0,0"
       style="fill:#000000;fill-opacity:1;fill-rule:evenodd;stroke:none"
       transform="matrix(1.3333333,0,0,-1.3333333,-278.67636,146.63606)"
       clip-path="url(#clipPath578)" /><path
       id="path579"
       d="m 0,0 c 1.465,2.054 0.514,4.857 -1.616,6.116 -1.88,1.112 -5.446,0.583 -7.543,-1.842 -6.758,-7.821 4.074,-20.425 14.83,-14.008 4.933,2.942 7.011,9.964 13.136,12.713 6.164,2.765 15.079,1.706 17.406,-4.905 L 36.046,-1.934 C 33.842,4.333 23.272,4.641 17.874,1.212 13.45,-1.599 11.327,-8.613 6.353,-11.346 c -6.876,-3.777 -13.269,-1.647 -17.049,2.351 -4.023,4.256 -4.72,10.984 -0.624,15.364 3.923,4.196 8.915,3.269 11.459,0.726 C 1.566,5.669 2.529,3.679 2.36,1.42 2.133,-1.606 -0.944,-4.798 -3.945,-2.744 -5.162,-1.91 -5.566,-0.027 -4.234,1.309 -2.717,2.831 -0.253,2.008 0,0"
       style="fill:#000000;fill-opacity:1;fill-rule:nonzero;stroke:none"
       transform="matrix(1.3333333,0,0,-1.3333333,-173.19329,138.77806)"
       clip-path="url(#clipPath580)" /><path
       id="path581"
       d="m 0,0 c -8.739,-2.94 -8.801,-10.6 -15.615,-14.834 -3.546,-2.204 -7.92,-2.015 -11.204,0.553 l -0.383,-0.603 c 2.109,-1.885 5.395,-3.058 9.306,-2.324 7.331,1.376 9.766,11.021 15.812,14.008 6.278,3.101 18.942,2.858 22.384,-10.925 2.17,3.536 -0.634,8.74 -2.877,10.865 C 13.282,0.664 6.742,2.269 0,0"
       style="fill:#000000;fill-opacity:1;fill-rule:evenodd;stroke:none"
       transform="matrix(1.3333333,0,0,-1.3333333,-146.79422,128.97726)"
       clip-path="url(#clipPath582)" /><path
       id="path583"
       d="M 0,0 C -1.787,0.336 -2.727,-3.084 0.243,-5.072 2.403,-6.518 4.285,-7.931 5.242,-10.573 4.403,-0.562 -1.23,6.1 -10.928,3.554 -4.757,4.316 -0.326,1.419 0,0"
       style="fill:#000000;fill-opacity:1;fill-rule:evenodd;stroke:none"
       transform="matrix(1.3333333,0,0,-1.3333333,-129.17436,140.93299)"
       clip-path="url(#clipPath584)" /><path
       id="path585"
       d="m 0,0 c 2.664,1.475 7.039,2.026 10.289,0.56 1.232,-0.557 1.596,-1.319 1.303,-2.318 -0.71,-2.421 -3.872,-1.579 -4.283,0.4 C 6.342,-2.964 3.949,-1.692 4.387,-0.515 2.731,-1.642 3.381,0.423 0,0"
       style="fill:#000000;fill-opacity:1;fill-rule:evenodd;stroke:none"
       transform="matrix(1.3333333,0,0,-1.3333333,-148.56956,139.18552)"
       clip-path="url(#clipPath586)" /><path
       id="path587"
       d="m 0,0 c -1.567,-1.084 -1.615,-3.316 -0.427,-4.759 1.05,-1.273 3.719,-1.814 5.83,-0.631 6.811,3.813 2.362,15.55 -6.927,13.762 -3.933,-0.76 -7.031,-4.614 -11.464,-5.494 -0.147,0.267 -0.301,0.525 -0.459,0.774 0.151,0.025 0.298,0.054 0.444,0.086 3.866,0.858 7.175,5.288 11.412,5.95 5.852,0.914 10.028,-2.241 11.683,-6.051 1.762,-4.058 0.526,-9.108 -3.508,-11.163 -3.864,-1.97 -7.356,0.064 -8.509,2.524 -0.647,1.38 -0.815,3.042 -0.117,4.602 0.94,2.089 3.946,3.563 5.549,1.336 C 4.158,0.029 3.961,-1.413 2.671,-2.018 1.201,-2.708 -0.336,-1.49 0,0"
       style="fill:#000000;fill-opacity:1;fill-rule:nonzero;stroke:none"
       transform="matrix(1.3333333,0,0,-1.3333333,-101.93876,141.11392)"
       clip-path="url(#clipPath588)" /><path
       id="path589"
       d="m 0,0 c -0.981,-2.776 0.987,-5.598 -1.917,-7.85 2.412,0.71 3.066,2.005 3.069,2.804 0.798,-1.767 2.217,-2.063 3.205,-3.387 -0.508,1.571 0.07,2.901 -0.909,4.573 0.653,-0.459 2.089,-0.676 4.063,0.88 C 3.994,-4.045 2.832,-0.807 0,0"
       style="fill:#000000;fill-opacity:1;fill-rule:nonzero;stroke:none"
       transform="matrix(1.3333333,0,0,-1.3333333,-57.833289,134.53579)"
       clip-path="url(#clipPath590)" /><path
       id="path591"
       d="m 0,0 c 3.05,-1.862 6.2,-1.062 9.633,0.928 3.2,1.853 10.363,3.816 12.9,-0.246 l 0.332,0.275 C 20.072,5.43 12.582,3.966 9.005,1.894 4.872,-0.502 1.401,-0.178 -1.89,3.006 -1.259,2.334 -0.419,0.783 0,0"
       style="fill:#000000;fill-opacity:1;fill-rule:nonzero;stroke:none"
       transform="matrix(1.3333333,0,0,-1.3333333,-87.641159,136.34579)"
       clip-path="url(#clipPath592)" /><path
       id="path593"
       d="M 0,0 C 1.083,-0.607 4.7,-1.188 6.215,0.132 5.839,-0.838 4.038,-2.056 3.139,-2.131 4.042,-3.245 2.9,-4.46 1.708,-3.785 1.531,-5.075 0.427,-5.912 -0.525,-6.328 0.585,-5.114 0.765,-1.292 0,0"
       style="fill:#000000;fill-opacity:1;fill-rule:evenodd;stroke:none"
       transform="matrix(1.3333333,0,0,-1.3333333,-86.983019,138.05792)"
       clip-path="url(#clipPath594)" /><path
       id="path595"
       d="m 0,0 c 0.332,0 0.601,0.27 0.601,0.602 0,0.331 -0.269,0.6 -0.601,0.6 -0.332,0 -0.601,-0.269 -0.601,-0.6 C -0.601,0.27 -0.332,0 0,0"
       style="fill:#000000;fill-opacity:1;fill-rule:evenodd;stroke:none"
       transform="matrix(1.3333333,0,0,-1.3333333,-82.025289,144.75459)"
       clip-path="url(#clipPath596)" /><path
       id="path597"
       d="M 0,0 C 0.167,0 0.302,0.136 0.302,0.303 0.302,0.47 0.167,0.605 0,0.605 -0.167,0.605 -0.302,0.47 -0.302,0.303 -0.302,0.136 -0.167,0 0,0"
       style="fill:#000000;fill-opacity:1;fill-rule:evenodd;stroke:none"
       transform="matrix(1.3333333,0,0,-1.3333333,-80.830619,145.70246)"
       clip-path="url(#clipPath598)" /><path
       id="path599"
       d="M 0,0 C -0.435,1.514 -4.969,4.995 -6.766,5.145 -5.682,6.32 -0.831,7.102 0.315,4.461 4.478,7.808 2.813,2.123 7.845,4.973 4.573,1.146 1.278,0.04 0,0"
       style="fill:#000000;fill-opacity:1;fill-rule:evenodd;stroke:none"
       transform="matrix(1.3333333,0,0,-1.3333333,-120.37756,135.25592)"
       clip-path="url(#clipPath600)" /><path
       id="path601"
       d="m 0,0 c 1.227,0.632 2.702,2.597 2.272,4.938 -1.043,5.676 -5.842,7.915 -10.24,6.583 -4.262,-1.292 -7.924,-5.115 -10.209,-5.333 0.258,-0.709 0.5,-1.158 0.635,-1.988 4.32,0.856 8.402,7.511 13.264,6.667 C -1.159,10.326 1.43,7.317 1.792,4.279 1.924,3.161 1.542,1.329 0,0"
       style="fill:#000000;fill-opacity:1;fill-rule:evenodd;stroke:none"
       transform="matrix(1.3333333,0,0,-1.3333333,-94.146359,146.63606)"
       clip-path="url(#clipPath602)" /><path
       id="path603"
       d="M 0,0 C 1.659,-0.522 3.146,-1.43 4.359,-2.584 4.838,-1.947 5.369,-1.39 5.972,-0.94 4.308,0.475 2.275,1.545 0,2.03 -2.995,2.668 -6.41,2.292 -9.953,0.345 c -4.975,-2.732 -7.098,-9.746 -11.521,-12.556 -5.399,-3.43 -15.968,-3.122 -18.172,3.145 l -0.168,-0.009 c 2.327,-6.611 11.242,-7.669 17.406,-4.904 6.126,2.748 8.203,9.77 13.136,12.713 C -6.026,0.67 -2.773,0.874 0,0"
       style="fill:#000000;fill-opacity:1;fill-rule:nonzero;stroke:none"
       transform="matrix(1.3333333,0,0,-1.3333333,-194.82876,56.512464)"
       clip-path="url(#clipPath604)" /><path
       id="path605"
       d="m 0,0 c -1.222,-0.704 -2.594,-1.011 -3.801,-0.947 -0.751,0.04 -1.439,0.225 -1.984,0.548 -2.131,1.259 -3.081,4.062 -1.616,6.116 0.22,-1.746 2.113,-2.596 3.6,-1.787 0.223,0.121 0.437,0.28 0.634,0.478 1.333,1.337 0.928,3.219 -0.289,4.053 -0.115,0.079 -0.229,0.148 -0.345,0.212 -2.887,1.596 -5.742,-1.465 -5.96,-4.376 -0.169,-2.258 0.794,-4.249 2.22,-5.675 0.961,-0.96 2.271,-1.69 3.74,-2 1.896,-0.401 4.056,-0.103 6.076,1.295 C 1.337,-1.497 0.594,-0.792 0,0"
       style="fill:#000000;fill-opacity:1;fill-rule:nonzero;stroke:none"
       transform="matrix(1.3333333,0,0,-1.3333333,-189.76102,78.802194)"
       clip-path="url(#clipPath606)" /><path
       id="path607"
       d="m 0,0 c -0.633,-0.583 -1.207,-1.255 -1.72,-2.017 1.371,-2.603 1.593,-5.674 0.049,-8.388 0.641,-0.809 1.401,-1.499 2.283,-2.067 0.997,1.555 1.513,3.302 1.596,5.077 v 1.021 C 2.105,-4.141 1.337,-1.91 0,0"
       style="fill:#000000;fill-opacity:1;fill-rule:nonzero;stroke:none"
       transform="matrix(1.3333333,0,0,-1.3333333,-183.82609,61.080724)"
       clip-path="url(#clipPath608)" /><path
       id="path609"
       d="m 0,0 c 8.739,2.94 8.801,10.6 15.616,14.834 3.434,2.135 7.644,2.024 10.89,-0.317 l 0.371,0.644 c -2.114,1.72 -5.266,2.744 -8.981,2.047 C 10.565,15.832 8.131,6.186 2.084,3.2 -4.193,0.098 -16.857,0.342 -20.299,14.125 -22.47,10.589 -19.665,5.384 -17.422,3.259 -13.281,-0.665 -6.741,-2.269 0,0"
       style="fill:#000000;fill-opacity:1;fill-rule:evenodd;stroke:none"
       transform="matrix(1.3333333,0,0,-1.3333333,-226.02929,80.979924)"
       clip-path="url(#clipPath610)" /><path
       id="path611"
       d="M 0,0 C 1.788,-0.336 2.727,3.084 -0.243,5.072 -2.403,6.518 -4.285,7.931 -5.242,10.573 -4.403,0.562 1.23,-6.099 10.929,-3.554 4.757,-4.316 0.327,-1.419 0,0"
       style="fill:#000000;fill-opacity:1;fill-rule:evenodd;stroke:none"
       transform="matrix(1.3333333,0,0,-1.3333333,-243.64836,69.024724)"
       clip-path="url(#clipPath612)" /><path
       id="path613"
       d="m 0,0 c -2.664,-1.474 -7.04,-2.026 -10.29,-0.559 -1.232,0.556 -1.596,1.318 -1.303,2.317 0.71,2.421 3.872,1.579 4.284,-0.4 0.967,1.606 3.359,0.335 2.921,-0.842 C -2.731,1.641 -3.381,-0.422 0,0"
       style="fill:#000000;fill-opacity:1;fill-rule:evenodd;stroke:none"
       transform="matrix(1.3333333,0,0,-1.3333333,-224.25249,70.772194)"
       clip-path="url(#clipPath614)" /><path
       id="path615"
       d="m 0,0 c 1.567,1.085 1.615,3.317 0.427,4.759 -1.049,1.273 -3.719,1.816 -5.83,0.631 -6.811,-3.812 -2.362,-15.549 6.927,-13.762 3.933,0.761 7.031,4.615 11.464,5.495 0.146,-0.267 0.301,-0.526 0.459,-0.775 -0.151,-0.025 -0.298,-0.054 -0.443,-0.086 -3.867,-0.857 -7.176,-5.288 -11.413,-5.95 -5.852,-0.913 -10.027,2.242 -11.683,6.052 -1.762,4.058 -0.525,9.108 3.508,11.164 C -2.72,9.498 0.773,7.462 1.925,5.002 2.572,3.623 2.74,1.961 2.042,0.401 1.102,-1.689 -1.904,-3.163 -3.507,-0.935 -4.158,-0.028 -3.961,1.414 -2.67,2.018 -1.202,2.708 0.336,1.491 0,0"
       style="fill:#000000;fill-opacity:1;fill-rule:nonzero;stroke:none"
       transform="matrix(1.3333333,0,0,-1.3333333,-270.88409,68.844464)"
       clip-path="url(#clipPath616)" /><path
       id="path617"
       d="M 0,0 C 0.981,2.777 -0.987,5.598 1.916,7.851 -0.495,7.141 -1.149,5.845 -1.153,5.047 -1.95,6.813 -3.37,7.11 -4.357,8.434 -3.849,6.863 -4.427,5.533 -3.449,3.861 -4.102,4.32 -5.537,4.537 -7.512,2.981 -3.994,4.045 -2.832,0.807 0,0"
       style="fill:#000000;fill-opacity:1;fill-rule:nonzero;stroke:none"
       transform="matrix(1.3333333,0,0,-1.3333333,-314.98889,75.422594)"
       clip-path="url(#clipPath618)" /><path
       id="path619"
       d="m 0,0 c -3.05,1.863 -6.201,1.062 -9.633,-0.927 -3.2,-1.854 -10.363,-3.817 -12.899,0.245 l -0.334,-0.275 c 2.793,-4.472 10.283,-3.008 13.861,-0.936 C -4.872,0.502 -1.402,0.178 1.89,-3.006 1.259,-2.333 0.418,-0.783 0,0"
       style="fill:#000000;fill-opacity:1;fill-rule:nonzero;stroke:none"
       transform="matrix(1.3333333,0,0,-1.3333333,-285.18089,73.612064)"
       clip-path="url(#clipPath620)" /><path
       id="path621"
       d="m 0,0 c -1.083,0.608 -4.7,1.188 -6.215,-0.131 0.377,0.969 2.177,2.187 3.076,2.263 -0.903,1.114 0.24,2.328 1.431,1.654 0.178,1.29 1.281,2.127 2.233,2.543 C -0.585,5.115 -0.765,1.293 0,0"
       style="fill:#000000;fill-opacity:1;fill-rule:evenodd;stroke:none"
       transform="matrix(1.3333333,0,0,-1.3333333,-285.83982,71.900464)"
       clip-path="url(#clipPath622)" /><path
       id="path623"
       d="m 0,0 c -0.333,0 -0.602,-0.27 -0.602,-0.601 0,-0.332 0.269,-0.601 0.602,-0.601 0.331,0 0.601,0.269 0.601,0.601 C 0.601,-0.269 0.331,0 0,0"
       style="fill:#000000;fill-opacity:1;fill-rule:evenodd;stroke:none"
       transform="matrix(1.3333333,0,0,-1.3333333,-290.79676,65.203124)"
       clip-path="url(#clipPath624)" /><path
       id="path625"
       d="m 0,0 c -0.166,0 -0.302,-0.135 -0.302,-0.301 0,-0.168 0.136,-0.303 0.302,-0.303 0.167,0 0.303,0.135 0.303,0.302 C 0.303,-0.135 0.167,0 0,0"
       style="fill:#000000;fill-opacity:1;fill-rule:evenodd;stroke:none"
       transform="matrix(1.3333333,0,0,-1.3333333,-291.99276,64.255924)"
       clip-path="url(#clipPath626)" /><path
       id="path627"
       d="M 0,0 C 0.435,-1.513 4.969,-4.995 6.766,-5.144 5.682,-6.32 0.831,-7.101 -0.315,-4.46 -4.477,-7.807 -2.813,-2.122 -7.845,-4.972 -4.572,-1.146 -1.278,-0.039 0,0"
       style="fill:#000000;fill-opacity:1;fill-rule:evenodd;stroke:none"
       transform="matrix(1.3333333,0,0,-1.3333333,-252.44529,74.702464)"
       clip-path="url(#clipPath628)" /><path
       id="path629"
       d="m 0,0 c -1.227,-0.632 -2.701,-2.597 -2.271,-4.938 1.042,-5.676 5.841,-7.915 10.239,-6.583 4.263,1.292 7.924,5.114 10.209,5.332 -0.258,0.709 -0.5,1.158 -0.635,1.989 -4.32,-0.856 -8.402,-7.511 -13.264,-6.668 -3.118,0.542 -5.708,3.551 -6.07,6.589 C -1.924,-3.162 -1.542,-1.33 0,0"
       style="fill:#000000;fill-opacity:1;fill-rule:evenodd;stroke:none"
       transform="matrix(1.3333333,0,0,-1.3333333,-278.67636,63.320994)"
       clip-path="url(#clipPath630)" /><path
       id="path631"
       d="m 0,0 c 1.465,-2.055 0.514,-4.857 -1.616,-6.117 -1.88,-1.111 -5.446,-0.583 -7.543,1.843 -6.758,7.821 4.074,20.425 14.83,14.008 4.933,-2.943 7.011,-9.965 13.136,-12.713 6.164,-2.765 15.079,-1.707 17.406,4.904 L 36.046,1.934 C 33.842,-4.333 23.272,-4.641 17.874,-1.212 13.45,1.599 11.327,8.613 6.353,11.345 -0.523,15.122 -6.916,12.993 -10.696,8.995 -14.719,4.739 -15.416,-1.989 -11.32,-6.37 -7.397,-10.566 -2.405,-9.638 0.139,-7.095 1.566,-5.669 2.529,-3.679 2.36,-1.42 2.133,1.606 -0.944,4.798 -3.945,2.744 -5.162,1.91 -5.566,0.027 -4.234,-1.309 -2.717,-2.831 -0.253,-2.008 0,0"
       style="fill:#000000;fill-opacity:1;fill-rule:nonzero;stroke:none"
       transform="matrix(1.3333333,0,0,-1.3333333,-173.19329,71.179124)"
       clip-path="url(#clipPath632)" /><path
       id="path633"
       d="m 0,0 c -8.739,2.94 -8.801,10.6 -15.615,14.834 -3.546,2.204 -7.92,2.015 -11.204,-0.553 l -0.383,0.602 c 2.109,1.885 5.395,3.059 9.306,2.325 C -10.565,15.832 -8.13,6.186 -2.084,3.2 4.194,0.098 16.858,0.342 20.3,14.125 22.47,10.589 19.666,5.384 17.423,3.259 13.282,-0.665 6.742,-2.269 0,0"
       style="fill:#000000;fill-opacity:1;fill-rule:evenodd;stroke:none"
       transform="matrix(1.3333333,0,0,-1.3333333,-146.79422,80.979924)"
       clip-path="url(#clipPath634)" /><path
       id="path635"
       d="M 0,0 C -1.787,-0.336 -2.727,3.084 0.243,5.072 2.403,6.518 4.285,7.931 5.242,10.573 4.403,0.562 -1.23,-6.099 -10.928,-3.554 -4.757,-4.316 -0.326,-1.419 0,0"
       style="fill:#000000;fill-opacity:1;fill-rule:evenodd;stroke:none"
       transform="matrix(1.3333333,0,0,-1.3333333,-129.17436,69.024724)"
       clip-path="url(#clipPath636)" /><path
       id="path637"
       d="m 0,0 c 2.664,-1.474 7.039,-2.026 10.289,-0.559 1.232,0.556 1.596,1.318 1.303,2.317 C 10.882,4.179 7.72,3.337 7.309,1.358 6.342,2.964 3.949,1.693 4.387,0.515 2.731,1.642 3.381,-0.423 0,0"
       style="fill:#000000;fill-opacity:1;fill-rule:evenodd;stroke:none"
       transform="matrix(1.3333333,0,0,-1.3333333,-148.56956,70.772194)"
       clip-path="url(#clipPath638)" /><path
       id="path639"
       d="m 0,0 c -1.567,1.085 -1.615,3.317 -0.427,4.759 1.05,1.274 3.719,1.815 5.83,0.631 6.811,-3.812 2.362,-15.549 -6.927,-13.762 -3.933,0.761 -7.031,4.615 -11.464,5.495 -0.147,-0.267 -0.301,-0.526 -0.459,-0.775 0.151,-0.025 0.298,-0.054 0.444,-0.086 3.866,-0.857 7.175,-5.288 11.412,-5.95 5.852,-0.913 10.028,2.242 11.683,6.052 C 11.854,0.422 10.618,5.472 6.584,7.527 2.72,9.497 -0.772,7.463 -1.925,5.002 -2.572,3.623 -2.74,1.961 -2.042,0.401 -1.102,-1.689 1.904,-3.163 3.507,-0.935 4.158,-0.028 3.961,1.414 2.671,2.018 1.201,2.708 -0.336,1.491 0,0"
       style="fill:#000000;fill-opacity:1;fill-rule:nonzero;stroke:none"
       transform="matrix(1.3333333,0,0,-1.3333333,-101.93876,68.844464)"
       clip-path="url(#clipPath640)" /><path
       id="path641"
       d="M 0,0 C -0.981,2.776 0.987,5.598 -1.917,7.85 0.495,7.14 1.149,5.845 1.152,5.046 1.95,6.813 3.369,7.109 4.357,8.433 3.849,6.862 4.427,5.533 3.448,3.861 4.101,4.319 5.537,4.536 7.511,2.98 3.994,4.045 2.832,0.807 0,0"
       style="fill:#000000;fill-opacity:1;fill-rule:nonzero;stroke:none"
       transform="matrix(1.3333333,0,0,-1.3333333,-57.833289,75.421924)"
       clip-path="url(#clipPath642)" /><path
       id="path643"
       d="m 0,0 c 3.05,1.863 6.2,1.062 9.633,-0.927 3.2,-1.854 10.363,-3.817 12.9,0.245 l 0.332,-0.275 C 20.072,-5.429 12.582,-3.966 9.005,-1.893 4.872,0.502 1.401,0.178 -1.89,-3.006 -1.259,-2.333 -0.419,-0.783 0,0"
       style="fill:#000000;fill-opacity:1;fill-rule:nonzero;stroke:none"
       transform="matrix(1.3333333,0,0,-1.3333333,-87.641159,73.612064)"
       clip-path="url(#clipPath644)" /><path
       id="path645"
       d="M 0,0 C 1.083,0.607 4.7,1.188 6.215,-0.132 5.839,0.838 4.038,2.056 3.139,2.131 4.042,3.246 2.9,4.46 1.708,3.785 1.531,5.075 0.427,5.913 -0.525,6.328 0.585,5.114 0.765,1.292 0,0"
       style="fill:#000000;fill-opacity:1;fill-rule:evenodd;stroke:none"
       transform="matrix(1.3333333,0,0,-1.3333333,-86.983019,71.899794)"
       clip-path="url(#clipPath646)" /><path
       id="path647"
       d="m 0,0 c 0.332,0 0.601,-0.269 0.601,-0.601 0,-0.332 -0.269,-0.601 -0.601,-0.601 -0.332,0 -0.601,0.269 -0.601,0.601 C -0.601,-0.269 -0.332,0 0,0"
       style="fill:#000000;fill-opacity:1;fill-rule:evenodd;stroke:none"
       transform="matrix(1.3333333,0,0,-1.3333333,-82.025289,65.203124)"
       clip-path="url(#clipPath648)" /><path
       id="path649"
       d="m 0,0 c 0.167,0 0.302,-0.136 0.302,-0.303 0,-0.166 -0.135,-0.302 -0.302,-0.302 -0.167,0 -0.302,0.136 -0.302,0.302 C -0.302,-0.136 -0.167,0 0,0"
       style="fill:#000000;fill-opacity:1;fill-rule:evenodd;stroke:none"
       transform="matrix(1.3333333,0,0,-1.3333333,-80.830619,64.255264)"
       clip-path="url(#clipPath650)" /><path
       id="path651"
       d="m 0,0 c -0.435,-1.513 -4.969,-4.995 -6.766,-5.144 1.084,-1.176 5.935,-1.957 7.081,0.684 4.163,-3.347 2.498,2.338 7.53,-0.512 C 4.573,-1.146 1.278,-0.04 0,0"
       style="fill:#000000;fill-opacity:1;fill-rule:evenodd;stroke:none"
       transform="matrix(1.3333333,0,0,-1.3333333,-120.37756,74.702464)"
       clip-path="url(#clipPath652)" /><path
       id="path653"
       d="m 0,0 c 1.227,-0.632 2.702,-2.596 2.272,-4.938 -1.043,-5.676 -5.842,-7.915 -10.24,-6.582 -4.262,1.291 -7.924,5.114 -10.209,5.332 0.258,0.709 0.5,1.158 0.635,1.988 4.32,-0.856 8.402,-7.51 13.264,-6.667 3.119,0.541 5.708,3.55 6.07,6.588 C 1.924,-3.161 1.542,-1.329 0,0"
       style="fill:#000000;fill-opacity:1;fill-rule:evenodd;stroke:none"
       transform="matrix(1.3333333,0,0,-1.3333333,-94.146359,63.321664)"
       clip-path="url(#clipPath654)" /><path
       id="path655"
       d="m 0,0 c -9.479,-0.941 0.6,-14.657 -8.051,-18.439 6.269,4.137 -2.893,17.804 5.714,20.127 C -1.668,1.07 -0.945,0.618 0,0"
       style="fill:#000000;fill-opacity:1;fill-rule:evenodd;stroke:none"
       transform="matrix(1.3333333,0,0,-1.3333333,-282.91076,79.159524)"
       clip-path="url(#clipPath656)" /><path
       id="path657"
       d="M 0,0 C -9.479,0.941 0.6,14.658 -8.051,18.439 -1.782,14.302 -10.944,0.636 -2.337,-1.688 -1.668,-1.069 -0.945,-0.618 0,0"
       style="fill:#000000;fill-opacity:1;fill-rule:evenodd;stroke:none"
       transform="matrix(1.3333333,0,0,-1.3333333,-282.91076,130.98632)"
       clip-path="url(#clipPath658)" /><path
       id="path659"
       d="M 0,0 C -4.523,-0.667 0.607,-14.673 -5.428,-16.876 0.607,-19.079 -4.523,-33.616 0,-34.283 -0.884,-32.555 -0.867,-1.694 0,0"
       style="fill:#000000;fill-opacity:1;fill-rule:evenodd;stroke:none"
       transform="matrix(1.3333333,0,0,-1.3333333,-284.20502,82.216864)"
       clip-path="url(#clipPath660)" /><path
       id="path661"
       d="M 0,0 C 9.479,-0.941 -0.6,-14.657 8.051,-18.439 1.782,-14.302 10.944,-0.635 2.337,1.688 1.668,1.07 0.945,0.618 0,0"
       style="fill:#000000;fill-opacity:1;fill-rule:evenodd;stroke:none"
       transform="matrix(1.3333333,0,0,-1.3333333,-89.060489,79.159524)"
       clip-path="url(#clipPath662)" /><path
       id="path663"
       d="M 0,0 C 9.479,0.941 -0.6,14.658 8.051,18.439 1.782,14.302 10.944,0.636 2.337,-1.688 1.668,-1.069 0.945,-0.618 0,0"
       style="fill:#000000;fill-opacity:1;fill-rule:evenodd;stroke:none"
       transform="matrix(1.3333333,0,0,-1.3333333,-89.060489,130.98632)"
       clip-path="url(#clipPath664)" /><path
       id="path665"
       d="M 0,0 C 4.523,-0.667 -0.606,-14.673 5.428,-16.876 -0.606,-19.079 4.523,-33.616 0,-34.283 0.885,-32.555 0.867,-1.694 0,0"
       style="fill:#000000;fill-opacity:1;fill-rule:evenodd;stroke:none"
       transform="matrix(1.3333333,0,0,-1.3333333,-87.766219,82.216864)"
       clip-path="url(#clipPath666)" /><path
       id="path667"
       d="m 0,0 c -0.101,-0.068 -0.208,-0.132 -0.321,-0.192 -0.876,-0.462 -2.098,-0.696 -3.261,-0.821 1.165,-0.741 2.091,-1.647 2.445,-2.952 0.249,0.299 0.521,0.56 0.816,0.782 0.881,0.663 1.967,0.978 3.26,0.947 C 1.585,-1.61 0.782,-0.851 0,0"
       style="fill:#000000;fill-opacity:1;fill-rule:nonzero;stroke:none"
       transform="matrix(1.3333333,0,0,-1.3333333,-215.31889,81.937524)"
       clip-path="url(#clipPath668)" /><path
       id="path669"
       d="m 0,0 c -2.555,-1.718 -4.846,-6.034 -7.402,-9.488 -1.786,-2.415 -3.703,-4.409 -5.927,-4.801 1.555,-0.732 3.995,-0.165 5.747,0.599 0.061,0.062 0.121,0.125 0.18,0.19 2.156,2.386 2.968,7.108 4.256,8.808 -0.68,-1.172 -1.685,-7.114 -3.127,-9.156 1.302,-1.551 4.888,-3.235 7.056,-2.701 C -4.679,-13.39 -3.308,-4.731 0,0"
       style="fill:#000000;fill-opacity:1;fill-rule:nonzero;stroke:none"
       transform="matrix(1.3333333,0,0,-1.3333333,-205.87822,63.328864)"
       clip-path="url(#clipPath670)" /><path
       id="path671"
       d="m 0,0 c -0.782,-0.851 -1.585,-1.61 -2.938,-2.236 1.292,0.031 2.379,-0.284 3.259,-0.947 0.296,-0.222 0.567,-0.483 0.816,-0.782 0.354,1.305 1.28,2.211 2.445,2.952 -1.163,0.125 -2.384,0.36 -3.261,0.822 C 0.208,-0.131 0.101,-0.068 0,0"
       style="fill:#000000;fill-opacity:1;fill-rule:nonzero;stroke:none"
       transform="matrix(1.3333333,0,0,-1.3333333,-157.15289,81.937524)"
       clip-path="url(#clipPath672)" /><path
       id="path673"
       d="m 0,0 c -2.555,3.454 -4.847,7.768 -7.401,9.485 3.308,-4.731 4.678,-13.389 -0.784,-16.548 2.169,-0.535 5.755,1.149 7.057,2.7 C -2.571,-2.32 -3.576,3.621 -4.256,4.793 -2.968,3.094 -2.155,-1.627 0,-4.013 0.06,-4.079 0.119,-4.142 0.18,-4.205 1.933,-4.969 4.372,-5.536 5.927,-4.803 3.702,-4.412 1.788,-2.417 0,0"
       style="fill:#000000;fill-opacity:1;fill-rule:nonzero;stroke:none"
       transform="matrix(1.3333333,0,0,-1.3333333,-156.72449,75.975924)"
       clip-path="url(#clipPath674)" /><path
       id="path675"
       d="M 0,0 C 0.782,0.852 1.585,1.61 2.939,2.236 1.646,2.205 0.56,2.521 -0.321,3.184 -0.616,3.405 -0.888,3.666 -1.137,3.966 -1.491,2.661 -2.417,1.754 -3.582,1.013 -2.419,0.888 -1.197,0.654 -0.321,0.192 -0.208,0.132 -0.101,0.068 0,0"
       style="fill:#000000;fill-opacity:1;fill-rule:nonzero;stroke:none"
       transform="matrix(1.3333333,0,0,-1.3333333,-215.31889,128.16739)"
       clip-path="url(#clipPath676)" /><path
       id="path677"
       d="m 0,0 c -2.168,0.534 -5.754,-1.15 -7.056,-2.701 1.443,-2.042 2.448,-7.984 3.128,-9.156 -1.288,1.7 -2.1,6.421 -4.257,8.808 -0.059,0.065 -0.118,0.128 -0.179,0.19 -1.753,0.764 -4.193,1.331 -5.747,0.598 2.223,-0.39 4.14,-2.385 5.926,-4.8 2.556,-3.454 4.848,-7.77 7.402,-9.488 C -4.091,-11.817 -5.461,-3.159 0,0"
       style="fill:#000000;fill-opacity:1;fill-rule:nonzero;stroke:none"
       transform="matrix(1.3333333,0,0,-1.3333333,-204.83462,124.71032)"
       clip-path="url(#clipPath678)" /><path
       id="path679"
       d="M 0,0 C 0.101,0.068 0.208,0.132 0.321,0.191 1.198,0.653 2.419,0.888 3.582,1.013 2.417,1.754 1.491,2.661 1.137,3.966 0.888,3.666 0.617,3.405 0.321,3.183 -0.559,2.521 -1.646,2.205 -2.938,2.236 -1.585,1.61 -0.782,0.852 0,0"
       style="fill:#000000;fill-opacity:1;fill-rule:nonzero;stroke:none"
       transform="matrix(1.3333333,0,0,-1.3333333,-157.15289,128.16739)"
       clip-path="url(#clipPath680)" /><path
       id="path681"
       d="m 0,0 c -0.061,-0.062 -0.121,-0.126 -0.18,-0.191 -2.155,-2.386 -2.968,-7.107 -4.256,-8.807 0.68,1.173 1.685,7.114 3.127,9.156 -1.301,1.551 -4.887,3.236 -7.056,2.701 5.462,-3.159 4.092,-11.817 0.783,-16.548 2.555,1.717 4.847,6.031 7.402,9.485 1.787,2.416 3.702,4.411 5.927,4.803 C 4.192,1.331 1.752,0.765 0,0"
       style="fill:#000000;fill-opacity:1;fill-rule:nonzero;stroke:none"
       transform="matrix(1.3333333,0,0,-1.3333333,-156.48436,128.52286)"
       clip-path="url(#clipPath682)" /></g></svg>
